<svg width="24" height="24" viewBox="0 0 24 24" fill="none" xmlns="http://www.w3.org/2000/svg">
<path fill-rule="evenodd" clip-rule="evenodd" d="M20.7448 4.34595C20.6656 3.17516 19.6909 2.25 18.5 2.25H5.5L5.34595 2.25519C4.17516 2.33436 3.25 3.30914 3.25 4.5V19.5L3.25519 19.654C3.33436 20.8248 4.30914 21.75 5.5 21.75H18.5L18.654 21.7448C19.8248 21.6656 20.75 20.6909 20.75 19.5V4.5L20.7448 4.34595ZM4.75685 4.39823C4.80199 4.06543 5.06543 3.80199 5.39823 3.75685L5.5 3.75H18.5L18.6018 3.75685C18.9678 3.80651 19.25 4.1203 19.25 4.5V19.5L19.2432 19.6018C19.1935 19.9678 18.8797 20.25 18.5 20.25H5.5L5.39823 20.2432C5.03215 20.1935 4.75 19.8797 4.75 19.5V4.5L4.75685 4.39823Z" fill="#323232"/>
<path d="M16.6318 15.75C17.046 15.75 17.3818 16.0858 17.3818 16.5C17.3818 16.8797 17.0997 17.1935 16.7336 17.2432L16.6318 17.25H12.6318C12.2176 17.25 11.8818 16.9142 11.8818 16.5C11.8818 16.1203 12.164 15.8065 12.5301 15.7568L12.6318 15.75H16.6318Z" fill="#323232"/>
<path d="M8.99907 15.0937C9.30725 14.8169 9.78144 14.8424 10.0582 15.1506C10.3098 15.4307 10.3116 15.8481 10.0783 16.1296L10.0013 16.2097L8.66509 17.4097C8.40851 17.6401 8.03273 17.6631 7.75234 17.4787L7.66271 17.4096L6.99893 16.8132C6.69082 16.5363 6.66546 16.0621 6.9423 15.754C7.19397 15.4739 7.60875 15.4275 7.91357 15.6294L8.00145 15.6974L8.16398 15.843L8.99907 15.0937Z" fill="#323232"/>
<path d="M16.6318 11.75C17.046 11.75 17.3818 12.0858 17.3818 12.5C17.3818 12.8797 17.0997 13.1935 16.7336 13.2432L16.6318 13.25H12.6318C12.2176 13.25 11.8818 12.9142 11.8818 12.5C11.8818 12.1203 12.164 11.8065 12.5301 11.7568L12.6318 11.75H16.6318Z" fill="#323232"/>
<path d="M15 6.25C15.4142 6.25 15.75 6.58579 15.75 7C15.75 7.3797 15.4678 7.69349 15.1018 7.74315L15 7.75H9C8.58579 7.75 8.25 7.41421 8.25 7C8.25 6.6203 8.53215 6.30651 8.89823 6.25685L9 6.25H15Z" fill="#323232"/>
<path d="M8.99907 11.0937C9.30725 10.8169 9.78144 10.8424 10.0582 11.1506C10.3098 11.4307 10.3116 11.8481 10.0783 12.1296L10.0013 12.2097L8.66509 13.4097C8.40851 13.6401 8.03273 13.6631 7.75234 13.4787L7.66271 13.4096L6.99893 12.8132C6.69082 12.5363 6.66546 12.0621 6.9423 11.754C7.19397 11.4739 7.60875 11.4275 7.91357 11.6294L8.00145 11.6974L8.16398 11.843L8.99907 11.0937Z" fill="#323232"/>
</svg>
