<svg width="24" height="24" viewBox="0 0 24 24" fill="none" xmlns="http://www.w3.org/2000/svg">
<path d="M12 3.25101C12.3797 3.25101 12.6935 3.53316 12.7432 3.89924L12.75 4.00101V6.44001C12.75 6.85422 12.4142 7.19001 12 7.19001C11.6203 7.19001 11.3065 6.90785 11.2568 6.54178L11.25 6.44001V4.00101C11.25 3.58679 11.5858 3.25101 12 3.25101Z" fill="#323232"/>
<path d="M21 12.25C21.4142 12.25 21.75 12.5858 21.75 13C21.75 13.3797 21.4678 13.6935 21.1018 13.7432L21 13.75H19C18.5858 13.75 18.25 13.4142 18.25 13C18.25 12.6203 18.5322 12.3065 18.8982 12.2568L19 12.25H21Z" fill="#323232"/>
<path d="M5 12.25C5.41421 12.25 5.75 12.5858 5.75 13C5.75 13.3797 5.46785 13.6935 5.10177 13.7432L5 13.75H3C2.58579 13.75 2.25 13.4142 2.25 13C2.25 12.6203 2.53215 12.3065 2.89823 12.2568L3 12.25H5Z" fill="#323232"/>
<path d="M17.8297 6.10968C18.1226 5.81679 18.5974 5.81679 18.8903 6.10968C19.1566 6.37595 19.1808 6.79261 18.9629 7.08623L18.8903 7.17034L13.9343 12.1263C13.6414 12.4192 13.1666 12.4192 12.8737 12.1263C12.6074 11.8601 12.5832 11.4434 12.801 11.1498L12.8737 11.0657L17.8297 6.10968Z" fill="#323232"/>
<path fill-rule="evenodd" clip-rule="evenodd" d="M12.1486 10.255L11.981 10.25L11.8135 10.255C10.3723 10.3416 9.23102 11.5371 9.23102 13C9.23102 14.5192 10.4618 15.75 11.981 15.75C13.5002 15.75 14.731 14.5192 14.731 13C14.731 11.5371 13.5897 10.3416 12.1486 10.255ZM10.731 13C10.731 12.3524 11.2225 11.8204 11.8531 11.7564L11.981 11.75L12.1089 11.7564C12.7395 11.8204 13.231 12.3524 13.231 13C13.231 13.6908 12.6718 14.25 11.981 14.25C11.2902 14.25 10.731 13.6908 10.731 13Z" fill="#323232"/>
<path d="M5.10968 6.10968C5.37595 5.84342 5.79261 5.81921 6.08623 6.03707L6.17034 6.10968L8.29034 8.22968C8.58324 8.52258 8.58324 8.99745 8.29034 9.29034C8.02408 9.55661 7.60741 9.58082 7.3138 9.36296L7.22968 9.29034L5.10968 7.17034C4.81679 6.87745 4.81679 6.40258 5.10968 6.10968Z" fill="#323232"/>
<path d="M5.10568 6.10568C8.91357 2.29778 15.0864 2.29778 18.8943 6.10568C22.7022 9.91357 22.7022 16.0864 18.8943 19.8943C18.6281 20.1606 18.2114 20.1848 17.9178 19.967L17.8337 19.8943L15.7097 17.7703C15.4168 17.4774 15.4168 17.0026 15.7097 16.7097C15.9759 16.4434 16.3926 16.4192 16.6862 16.6371L16.7703 16.7097L18.339 18.278L18.4001 18.2071C20.9845 15.0385 20.8614 10.3987 18.0309 7.37029L17.8337 7.16634C14.6116 3.94423 9.38844 3.94423 6.16634 7.16634C3.14561 10.1871 2.95682 14.9665 5.59995 18.2071L5.66001 18.278L7.10968 16.8297C7.37594 16.5634 7.79261 16.5392 8.08622 16.7571L8.17034 16.8297C8.4366 17.0959 8.46081 17.5126 8.24295 17.8062L8.17034 17.8903L6.16634 19.8943C5.87344 20.1872 5.39857 20.1872 5.10568 19.8943C1.29778 16.0864 1.29778 9.91357 5.10568 6.10568Z" fill="#323232"/>
</svg>
