<svg width="24" height="24" viewBox="0 0 24 24" fill="none" xmlns="http://www.w3.org/2000/svg">
<path d="M13.7483 2.25C14.2749 2.25 14.7706 2.48697 15.1012 2.88995L15.1952 3.01576L15.9604 4.1406C15.9953 4.19193 16.0476 4.2278 16.1064 4.24253L16.1671 4.25H19C20.4625 4.25 21.6584 5.3917 21.745 6.83248L21.75 7V11.3698C21.75 12.6296 20.7713 13.6608 19.5328 13.7445L19.3698 13.75H17C16.5858 13.75 16.25 13.4142 16.25 13C16.25 12.6203 16.5322 12.3065 16.8982 12.2568L17 12.25H19.3698C19.8185 12.25 20.1888 11.9142 20.2431 11.4802L20.25 11.3698V7C20.25 6.35279 19.7581 5.82047 19.1278 5.75645L19 5.75H16.1671C15.6404 5.75 15.1448 5.51303 14.8142 5.11005L14.7201 4.98424L13.955 3.8594C13.9201 3.80807 13.8678 3.7722 13.8089 3.75747L13.7483 3.75H11.6291C11.1809 3.75 10.8111 4.08536 10.7568 4.51883L10.75 4.6291V9C10.75 9.41421 10.4142 9.75 10 9.75C9.6203 9.75 9.30651 9.46785 9.25685 9.10177L9.25 9V4.6291C9.25 3.36991 10.2282 2.3392 11.4662 2.25549L11.6291 2.25H13.7483Z" fill="#323232"/>
<path d="M21 16.25C21.3797 16.25 21.6935 16.5322 21.7432 16.8982L21.75 17V19C21.75 20.4625 20.6083 21.6584 19.1675 21.745L19 21.75H17C16.5858 21.75 16.25 21.4142 16.25 21C16.25 20.6203 16.5322 20.3065 16.8982 20.2568L17 20.25H19C19.6472 20.25 20.1795 19.7581 20.2435 19.1278L20.25 19V17C20.25 16.5858 20.5858 16.25 21 16.25Z" fill="#323232"/>
<path d="M7 2.25C7.41421 2.25 7.75 2.58579 7.75 3C7.75 3.3797 7.46785 3.69349 7.10177 3.74315L7 3.75H5C4.35279 3.75 3.82047 4.24187 3.75645 4.87219L3.75 5V7C3.75 7.41421 3.41421 7.75 3 7.75C2.6203 7.75 2.30651 7.46785 2.25685 7.10177L2.25 7V5C2.25 3.53747 3.3917 2.3416 4.83248 2.25502L5 2.25H7Z" fill="#323232"/>
<path fill-rule="evenodd" clip-rule="evenodd" d="M4.6291 10.25H6.74826C7.32761 10.25 7.86941 10.5367 8.19524 11.0158L8.96038 12.1406C9.00693 12.209 9.08433 12.25 9.16709 12.25H12C13.5188 12.25 14.75 13.4812 14.75 15V19.3698C14.75 20.6843 13.6843 21.75 12.3698 21.75H5C3.48122 21.75 2.25 20.5188 2.25 19V12.6291C2.25 11.9981 2.50065 11.393 2.94682 10.9468C3.39299 10.5007 3.99812 10.25 4.6291 10.25ZM6.74826 11.75H4.6291C4.39595 11.75 4.17235 11.8426 4.00748 12.0075C3.84262 12.1723 3.75 12.3959 3.75 12.6291V19C3.75 19.6904 4.30964 20.25 5 20.25H12.3698C12.8559 20.25 13.25 19.8559 13.25 19.3698V15C13.25 14.3096 12.6904 13.75 12 13.75H9.16709C8.58774 13.75 8.04594 13.4633 7.72011 12.9842L6.95497 11.8594C6.90842 11.791 6.83102 11.75 6.74826 11.75Z" fill="#323232"/>
</svg>
