<svg width="24" height="24" viewBox="0 0 24 24" fill="none" xmlns="http://www.w3.org/2000/svg">
<path d="M21 15.25C21.3797 15.25 21.6935 15.5322 21.7432 15.8982L21.75 16V19C21.75 20.4625 20.6083 21.6584 19.1675 21.745L19 21.75H17C16.5858 21.75 16.25 21.4142 16.25 21C16.25 20.6203 16.5322 20.3065 16.8982 20.2568L17 20.25H19C19.6472 20.25 20.1795 19.7581 20.2435 19.1278L20.25 19V16C20.25 15.5858 20.5858 15.25 21 15.25Z" fill="#323232"/>
<path d="M7 2.25C7.41421 2.25 7.75 2.58579 7.75 3C7.75 3.3797 7.46785 3.69349 7.10177 3.74315L7 3.75H5C4.35279 3.75 3.82047 4.24187 3.75645 4.87219L3.75 5V9C3.75 9.41421 3.41421 9.75 3 9.75C2.6203 9.75 2.30651 9.46785 2.25685 9.10177L2.25 9V5C2.25 3.53747 3.3917 2.3416 4.83248 2.25502L5 2.25H7Z" fill="#323232"/>
<path d="M10.5 17.75C12.2949 17.75 13.75 19.2051 13.75 21C13.75 21.4142 13.4142 21.75 13 21.75C12.6203 21.75 12.3065 21.4678 12.2568 21.1018L12.25 21C12.25 20.0818 11.5429 19.3288 10.6435 19.2558L10.5 19.25H5.5C4.5335 19.25 3.75 20.0335 3.75 21C3.75 21.4142 3.41421 21.75 3 21.75C2.58579 21.75 2.25 21.4142 2.25 21C2.25 19.267 3.60645 17.8508 5.31558 17.7551L5.5 17.75H10.5Z" fill="#323232"/>
<path fill-rule="evenodd" clip-rule="evenodd" d="M4.75 13.5C4.75 11.7051 6.20507 10.25 8 10.25C9.79493 10.25 11.25 11.7051 11.25 13.5C11.25 15.2949 9.79493 16.75 8 16.75C6.20507 16.75 4.75 15.2949 4.75 13.5ZM9.75 13.5C9.75 12.5335 8.9665 11.75 8 11.75C7.0335 11.75 6.25 12.5335 6.25 13.5C6.25 14.4665 7.0335 15.25 8 15.25C8.9665 15.25 9.75 14.4665 9.75 13.5Z" fill="#323232"/>
<path d="M13.7483 2.25C14.2749 2.25 14.7706 2.48697 15.1012 2.88995L15.1952 3.01576L15.9604 4.1406C15.9953 4.19193 16.0476 4.2278 16.1064 4.24253L16.1671 4.25H19C20.4625 4.25 21.6584 5.3917 21.745 6.83248L21.75 7V11.3698C21.75 12.6296 20.7713 13.6608 19.5328 13.7445L19.3698 13.75H14C13.5858 13.75 13.25 13.4142 13.25 13C13.25 12.6203 13.5322 12.3065 13.8982 12.2568L14 12.25H19.3698C19.8185 12.25 20.1888 11.9142 20.2431 11.4802L20.25 11.3698V7C20.25 6.35279 19.7581 5.82047 19.1278 5.75645L19 5.75H16.1671C15.6404 5.75 15.1448 5.51303 14.8142 5.11005L14.7201 4.98424L13.955 3.8594C13.9201 3.80807 13.8678 3.7722 13.8089 3.75747L13.7483 3.75H11.6291C11.1809 3.75 10.8111 4.08536 10.7568 4.51883L10.75 4.6291V8C10.75 8.41421 10.4142 8.75 10 8.75C9.6203 8.75 9.30651 8.46785 9.25685 8.10177L9.25 8V4.6291C9.25 3.36991 10.2282 2.3392 11.4662 2.25549L11.6291 2.25H13.7483Z" fill="#323232"/>
</svg>
