<svg width="24" height="24" viewBox="0 0 24 24" fill="none" xmlns="http://www.w3.org/2000/svg">
<path fill-rule="evenodd" clip-rule="evenodd" d="M19 3.25C20.5188 3.25 21.75 4.48122 21.75 6V18C21.75 19.5188 20.5188 20.75 19 20.75H5C3.48122 20.75 2.25 19.5188 2.25 18V7C2.25 5.48122 3.48122 4.25 5 4.25H13.115L13.2108 4.13959C13.6812 3.62758 14.3345 3.30675 15.0419 3.25684L15.2361 3.25H19ZM19 4.75H15.2361C14.8099 4.75 14.4167 4.96668 14.188 5.31873L14.118 5.44098L12.7236 8.22984C12.2578 9.1615 11.3056 9.75 10.2639 9.75H3.75V18C3.75 18.6472 4.24187 19.1795 4.87219 19.2435L5 19.25H19C19.6904 19.25 20.25 18.6904 20.25 18V6C20.25 5.30964 19.6904 4.75 19 4.75ZM5 5.75H12.286L11.382 7.55902L11.312 7.68127C11.0833 8.03332 10.6901 8.25 10.2639 8.25H3.75V7C3.75 6.30964 4.30964 5.75 5 5.75Z" fill="#323232"/>
</svg>
