<svg width="24" height="24" viewBox="0 0 24 24" fill="none" xmlns="http://www.w3.org/2000/svg">
<path d="M10 14.25C12.6232 14.25 14.75 16.3768 14.75 19C14.75 19.4142 14.4142 19.75 14 19.75C13.5858 19.75 13.25 19.4142 13.25 19C13.25 17.2671 11.8934 15.8508 10.1844 15.7551L10 15.75H6C4.20521 15.75 2.75 17.2052 2.75 19C2.75 19.4142 2.41421 19.75 2 19.75C1.58579 19.75 1.25 19.4142 1.25 19C1.25 16.4497 3.26027 14.3685 5.78258 14.2549L6 14.25H10Z" fill="#323232"/>
<path fill-rule="evenodd" clip-rule="evenodd" d="M11.0052 5.4948C9.34548 3.83507 6.65453 3.83507 4.9948 5.4948C3.33507 7.15453 3.33507 9.84548 4.9948 11.5052C6.65453 13.1649 9.34548 13.1649 11.0052 11.5052C12.6649 9.84548 12.6649 7.15453 11.0052 5.4948ZM6.05546 6.55546C7.08466 5.52626 8.72666 5.48338 9.80693 6.42681L9.94455 6.55546L10.0732 6.69308C11.0166 7.77335 10.9737 9.41535 9.94455 10.4446C8.8706 11.5185 7.12941 11.5185 6.05546 10.4446C4.98151 9.3706 4.98151 7.62941 6.05546 6.55546Z" fill="#323232"/>
<path d="M19 13.25C21.0712 13.25 22.75 14.9288 22.75 17C22.75 17.4142 22.4142 17.75 22 17.75C21.6203 17.75 21.3065 17.4678 21.2568 17.1018L21.25 17C21.25 15.809 20.325 14.8343 19.1541 14.7552L19 14.75H16C15.5858 14.75 15.25 14.4142 15.25 14C15.25 13.6203 15.5322 13.3065 15.8982 13.2568L16 13.25H19Z" fill="#323232"/>
<path fill-rule="evenodd" clip-rule="evenodd" d="M19.7981 6.2019C18.5289 4.9327 16.4711 4.9327 15.2019 6.2019C13.9327 7.47111 13.9327 9.52889 15.2019 10.7981C16.4711 12.0673 18.5289 12.0673 19.7981 10.7981C21.0673 9.52889 21.0673 7.47111 19.7981 6.2019ZM16.2626 7.26256C16.9058 6.61935 17.9252 6.58151 18.6126 7.14905L18.7375 7.26256L18.851 7.3874C19.4185 8.07487 19.3807 9.09422 18.7375 9.73743C18.054 10.4209 16.946 10.4209 16.2626 9.73743C15.5792 9.05402 15.5792 7.94598 16.2626 7.26256Z" fill="#323232"/>
</svg>
