<svg width="24" height="24" viewBox="0 0 24 24" fill="none" xmlns="http://www.w3.org/2000/svg">
<path fill-rule="evenodd" clip-rule="evenodd" d="M19.6522 3.3488C18.9489 2.6455 17.9951 2.25035 17.0006 2.25029L7.00058 2.24969C6.00596 2.24969 5.05213 2.6447 4.34886 3.34789C3.64556 4.0511 3.25041 5.00491 3.25035 5.99947L3.24963 17.9995C3.24963 18.9941 3.64464 19.9479 4.34782 20.6512C5.05104 21.3545 6.00485 21.7496 6.99941 21.7497L14.7568 21.7502C15.7514 21.7502 16.7052 21.3552 17.4085 20.652L19.6513 18.4095C20.3546 17.7062 20.7497 16.7524 20.7498 15.7579L20.7504 6.00052C20.7504 5.0059 20.3553 4.05207 19.6522 3.3488ZM7.00053 3.74969L17.0005 3.75029C17.5972 3.75033 18.1695 3.98742 18.5914 4.4094C19.0133 4.83135 19.2504 5.40367 19.2504 6.00047L19.2498 15.7578C19.2497 16.3545 19.0127 16.9268 18.5907 17.3488L16.3479 19.5912C15.926 20.0132 15.3536 20.2502 14.7568 20.2502L6.9995 20.2497C6.40276 20.2497 5.83048 20.0126 5.40855 19.5906C4.98664 19.1686 4.74963 18.5963 4.74963 17.9995L4.75035 5.99956C4.75039 5.40282 4.98748 4.83054 5.40946 4.40861C5.83141 3.9867 6.40373 3.74969 7.00053 3.74969Z" fill="#323232"/>
<path d="M19.9998 14.7505C20.414 14.7505 20.7498 15.0863 20.7498 15.5005C20.7498 15.9147 20.4139 16.2505 19.9997 16.2505L16.4998 16.2503C16.1682 16.2503 15.8502 16.3819 15.6158 16.6163C15.3814 16.8507 15.2497 17.1687 15.2497 17.5002L15.2495 21.0002C15.2494 21.4144 14.9136 21.7502 14.4994 21.7502C14.0852 21.7501 13.7494 21.4143 13.7495 21.0001L13.7497 17.5001C13.7497 16.7708 14.0395 16.0713 14.5552 15.5556C15.071 15.0399 15.7704 14.7503 16.4998 14.7503L19.9998 14.7505Z" fill="#323232"/>
<path d="M8.00029 6.74976L16.0003 6.75024C16.4145 6.75026 16.7503 7.08607 16.7502 7.50028C16.7502 7.91449 16.4144 8.25026 16.0002 8.25024L8.0002 8.24976C7.58599 8.24973 7.25022 7.91392 7.25024 7.49971C7.25027 7.0855 7.58608 6.74973 8.00029 6.74976Z" fill="#323232"/>
<path d="M8.00011 10.2498L16.0001 10.2502C16.4143 10.2503 16.7501 10.5861 16.7501 11.0003C16.75 11.4145 16.4142 11.7503 16 11.7502L8.00002 11.7498C7.5858 11.7497 7.25004 11.4139 7.25006 10.9997C7.25009 10.5855 7.58589 10.2497 8.00011 10.2498Z" fill="#323232"/>
<path d="M7.99986 13.7498L10.6999 13.7499C11.1141 13.7499 11.4498 14.0857 11.4498 14.5C11.4498 14.9142 11.114 15.2499 10.6998 15.2499L7.99977 15.2498C7.58556 15.2497 7.24979 14.9139 7.24982 14.4997C7.24984 14.0855 7.58565 13.7497 7.99986 13.7498Z" fill="#323232"/>
</svg>
