<svg width="24" height="24" viewBox="0 0 24 24" fill="none" xmlns="http://www.w3.org/2000/svg">
<path fill-rule="evenodd" clip-rule="evenodd" d="M15.0052 3.9948C13.3455 2.33507 10.6545 2.33507 8.99482 3.9948C7.33508 5.65453 7.33508 8.34548 8.99482 10.0052C10.6545 11.6649 13.3455 11.6649 15.0052 10.0052C16.665 8.34548 16.665 5.65453 15.0052 3.9948ZM10.0555 5.05546C11.0847 4.02626 12.7267 3.98338 13.8069 4.92681L13.9446 5.05546L14.0732 5.19308C15.0166 6.27335 14.9738 7.91535 13.9446 8.94455C12.8706 10.0185 11.1294 10.0185 10.0555 8.94455C8.98153 7.8706 8.98153 6.12941 10.0555 5.05546Z" fill="#323232"/>
<path fill-rule="evenodd" clip-rule="evenodd" d="M3.25 18.5C3.25 15.1186 7.30494 12.758 12 12.758C16.6951 12.758 20.75 15.1186 20.75 18.5V19.5C20.75 20.4662 19.9662 21.25 19 21.25H5C4.03379 21.25 3.25 20.4662 3.25 19.5V18.5ZM19.25 18.5C19.25 16.1641 15.9759 14.258 12 14.258C8.02413 14.258 4.75 16.1641 4.75 18.5V19.5C4.75 19.6378 4.86221 19.75 5 19.75H19C19.1378 19.75 19.25 19.6378 19.25 19.5V18.5Z" fill="#323232"/>
</svg>
