<svg width="24" height="24" viewBox="0 0 24 24" fill="none" xmlns="http://www.w3.org/2000/svg">
<path fill-rule="evenodd" clip-rule="evenodd" d="M12 2.25L12.2871 2.25415C17.5507 2.40653 21.75 6.72183 21.7499 12.0108L21.7458 12.2871C21.5934 17.5507 17.2782 21.75 11.9891 21.7499L11.7129 21.7458C6.44924 21.5935 2.24998 17.2782 2.25006 11.9892L2.25413 11.7129C2.40652 6.44926 6.72181 2.25 12 2.25ZM12.2545 3.75376L12 3.75C7.53389 3.75 3.88242 7.30329 3.75374 11.7455L3.74998 12C3.74998 16.4661 7.30328 20.1176 11.7454 20.2462L12 20.25C16.4661 20.25 20.1175 16.6967 20.2462 12.2545L20.25 12C20.25 7.53391 16.6967 3.88244 12.2545 3.75376Z" fill="#323232"/>
</svg>
