<svg width="24" height="24" viewBox="0 0 24 24" fill="none" xmlns="http://www.w3.org/2000/svg">
<path fill-rule="evenodd" clip-rule="evenodd" d="M15.25 19C15.25 17.2051 16.7051 15.75 18.5 15.75C20.2949 15.75 21.75 17.2051 21.75 19C21.75 20.7949 20.2949 22.25 18.5 22.25C16.7051 22.25 15.25 20.7949 15.25 19ZM20.25 19C20.25 18.0335 19.4665 17.25 18.5 17.25C17.5335 17.25 16.75 18.0335 16.75 19C16.75 19.9665 17.5335 20.75 18.5 20.75C19.4665 20.75 20.25 19.9665 20.25 19Z" fill="#323232"/>
<path d="M6.50336 4.625L6.61299 4.63223C7.00796 4.68315 7.32007 4.99727 7.36847 5.39255L7.375 5.50223C7.37376 5.98504 6.98169 6.37561 6.49888 6.37499C6.01607 6.37438 5.625 5.98281 5.62501 5.50407C5.62374 5.26996 5.71641 5.04511 5.88227 4.87989C6.02049 4.7422 6.19991 4.6555 6.39135 4.63168L6.50336 4.625Z" fill="#323232"/>
<path fill-rule="evenodd" clip-rule="evenodd" d="M6.28775 1.25545L6.5 1.25C8.84721 1.25 10.75 3.15279 10.75 5.5C10.75 7.16435 9.46746 8.80966 7.59577 10.3724C6.95134 10.8761 6.04663 10.8759 5.38357 10.3565C3.64755 8.90506 2.40436 7.35423 2.26025 5.74226L2.25 5.5C2.25 3.23952 4.01931 1.37784 6.28775 1.25545ZM6.5 2.75L6.34846 2.75408C4.89506 2.83268 3.75 4.03751 3.74923 5.46591L3.75646 5.64105C3.85029 6.68519 4.90569 8.00177 6.32682 9.19049C6.42822 9.26982 6.57062 9.26986 6.65313 9.20587C8.17048 7.93855 9.25 6.55368 9.25 5.5C9.25 3.98122 8.01878 2.75 6.5 2.75Z" fill="#323232"/>
<path d="M15 6.25C17.0711 6.25 18.75 7.92893 18.75 10C18.75 12.0043 17.1776 13.6413 15.1992 13.7448L15 13.75H9C7.75736 13.75 6.75 14.7574 6.75 16C6.75 17.1909 7.67516 18.1656 8.84595 18.2448L9 18.25H12C12.4142 18.25 12.75 18.5858 12.75 19C12.75 19.3797 12.4678 19.6935 12.1018 19.7432L12 19.75H9C6.92893 19.75 5.25 18.0711 5.25 16C5.25 13.9957 6.82236 12.3587 8.80084 12.2552L9 12.25H15C16.2426 12.25 17.25 11.2426 17.25 10C17.25 8.80914 16.3248 7.83436 15.154 7.75519L15 7.75H13C12.5858 7.75 12.25 7.41421 12.25 7C12.25 6.6203 12.5322 6.30651 12.8982 6.25685L13 6.25H15Z" fill="#323232"/>
</svg>
