<svg width="24" height="24" viewBox="0 0 24 24" fill="none" xmlns="http://www.w3.org/2000/svg">
<path d="M10.6644 1.8846C11.4358 1.45549 12.3624 1.42484 13.1558 1.79252L13.3363 1.88444L15.3643 3.01144C15.7264 3.21265 15.8568 3.66927 15.6556 4.03133C15.4711 4.36322 15.0721 4.50045 14.728 4.36604L14.6357 4.32259L12.6074 3.19543C12.272 3.00886 11.8719 2.98813 11.5219 3.1334L11.3932 3.19566L9.36419 4.32266C9.00209 4.52379 8.5455 4.3933 8.34437 4.03119C8.16 3.69926 8.25429 3.28794 8.55019 3.06677L8.63584 3.01137L10.6644 1.8846Z" fill="#323232"/>
<path d="M5.63577 4.6774C5.99786 4.47624 6.45446 4.6067 6.65562 4.96879C6.84001 5.3007 6.74576 5.71204 6.44987 5.93323L6.36423 5.98864L4.39341 7.08354C4.03587 7.2823 3.80074 7.64096 3.75729 8.04195L3.75 8.17702V10.432C3.75 10.8462 3.41421 11.182 3 11.182C2.6203 11.182 2.30651 10.8999 2.25685 10.5338L2.25 10.432V8.17702C2.25 7.24035 2.72586 6.37321 3.50496 5.86844L3.66477 5.7724L5.63577 4.6774Z" fill="#323232"/>
<path d="M14.6358 19.6774C14.9979 19.4762 15.4545 19.6067 15.6557 19.9688C15.84 20.3008 15.7457 20.7121 15.4498 20.9333L15.3642 20.9887L13.3356 22.1154C12.5642 22.5445 11.6376 22.5752 10.8443 22.2075L10.6637 22.1156L8.6357 20.9886C8.27364 20.7874 8.14324 20.3308 8.34444 19.9687C8.52888 19.6368 8.92794 19.4996 9.27205 19.634L9.36433 19.6775L11.3926 20.8046C11.728 20.9912 12.1281 21.0119 12.4781 20.8666L12.6068 20.8044L14.6358 19.6774Z" fill="#323232"/>
<path d="M21 12.818C21.3797 12.818 21.6935 13.1001 21.7432 13.4662L21.75 13.568V15.823C21.75 16.7593 21.2736 17.6274 20.4952 18.1308L20.3355 18.2265L18.3645 19.3225C18.0025 19.5238 17.5458 19.3935 17.3445 19.0315C17.16 18.6996 17.2541 18.2883 17.5499 18.067L17.6355 18.0115L19.6074 16.915C19.964 16.7174 20.1992 16.3585 20.2427 15.9579L20.25 15.823V13.568C20.25 13.1538 20.5858 12.818 21 12.818Z" fill="#323232"/>
<path d="M14.2605 9.88999C14.6228 9.68923 15.0792 9.82019 15.28 10.1825C15.464 10.5146 15.3693 10.9258 15.0732 11.1467L14.9875 11.202L12.3635 12.656C12.1697 12.7634 11.9401 12.7788 11.7361 12.7021L11.6365 12.656L9.01248 11.202C8.65017 11.0013 8.51921 10.5448 8.71997 10.1825C8.904 9.85038 9.30289 9.71266 9.64717 9.84665L9.7395 9.88999L12 11.142L14.2605 9.88999Z" fill="#323232"/>
<path d="M12 11.25C12.3797 11.25 12.6935 11.5322 12.7432 11.8982L12.75 12V15C12.75 15.4142 12.4142 15.75 12 15.75C11.6203 15.75 11.3065 15.4678 11.2568 15.1018L11.25 15V12C11.25 11.5858 11.5858 11.25 12 11.25Z" fill="#323232"/>
<path d="M12 1.54001C12.3797 1.54001 12.6935 1.82216 12.7432 2.18824L12.75 2.29001V5.00001C12.75 5.41422 12.4142 5.75001 12 5.75001C11.6203 5.75001 11.3065 5.46785 11.2568 5.10178L11.25 5.00001V2.29001C11.25 1.87579 11.5858 1.54001 12 1.54001Z" fill="#323232"/>
<path d="M12 18.25C12.3797 18.25 12.6935 18.5322 12.7432 18.8982L12.75 19V21.71C12.75 22.1242 12.4142 22.46 12 22.46C11.6203 22.46 11.3065 22.1778 11.2568 21.8118L11.25 21.71V19C11.25 18.5858 11.5858 18.25 12 18.25Z" fill="#323232"/>
<path d="M2.62318 6.79794C2.80649 6.46542 3.20508 6.32683 3.54964 6.46008L3.64207 6.50321L5.98207 7.79321C6.34481 7.99319 6.47677 8.44936 6.27679 8.81211C6.09348 9.14462 5.69489 9.28321 5.35033 9.14996L5.2579 9.10683L2.9179 7.81683C2.55516 7.61685 2.4232 7.16068 2.62318 6.79794Z" fill="#323232"/>
<path d="M17.7232 15.1879C17.9065 14.8554 18.3051 14.7168 18.6497 14.8501L18.7421 14.8932L21.0821 16.1832C21.4449 16.3832 21.5768 16.8393 21.3768 17.2021C21.1935 17.5346 20.7949 17.6732 20.4504 17.5399L20.3579 17.4968L18.0179 16.2068C17.6552 16.0068 17.5232 15.5507 17.7232 15.1879Z" fill="#323232"/>
<path d="M17.3445 4.96854C17.5291 4.63669 17.9282 4.49957 18.2722 4.63407L18.3645 4.67755L20.3346 5.77306C21.1534 6.22692 21.681 7.06483 21.7437 7.99075L21.75 8.17702V10.432C21.75 10.8462 21.4142 11.182 21 11.182C20.6203 11.182 20.3065 10.8999 20.2569 10.5338L20.25 10.432V8.17702C20.25 7.76866 20.0504 7.38871 19.721 7.15633L19.6065 7.0845L17.6355 5.9885C17.2735 5.7872 17.1432 5.33055 17.3445 4.96854Z" fill="#323232"/>
<path d="M3 12.818C3.3797 12.818 3.69349 13.1001 3.74315 13.4662L3.75 13.568V15.823C3.75 16.2314 3.94957 16.6113 4.27897 16.8437L4.39349 16.9155L6.36449 18.0115C6.7265 18.2128 6.85678 18.6695 6.65548 19.0315C6.47095 19.3633 6.07186 19.5004 5.72779 19.3659L5.63551 19.3225L3.66538 18.227C2.84664 17.7731 2.31905 16.9352 2.2563 16.0093L2.25 15.823V13.568C2.25 13.1538 2.58579 12.818 3 12.818Z" fill="#323232"/>
<path d="M20.3579 6.50321C20.7207 6.30324 21.1769 6.43519 21.3768 6.79794C21.5601 7.13045 21.4645 7.54147 21.1679 7.7617L21.0821 7.81683L18.7421 9.10683C18.3794 9.3068 17.9232 9.17485 17.7232 8.81211C17.5399 8.47959 17.6355 8.06857 17.9321 7.84834L18.0179 7.79321L20.3579 6.50321Z" fill="#323232"/>
<path d="M5.2579 14.8932C5.62064 14.6932 6.07682 14.8252 6.27679 15.1879C6.4601 15.5204 6.3645 15.9315 6.06789 16.1517L5.98207 16.2068L3.64207 17.4968C3.27933 17.6968 2.82315 17.5648 2.62318 17.2021C2.43987 16.8696 2.53547 16.4586 2.83208 16.2383L2.9179 16.1832L5.2579 14.8932Z" fill="#323232"/>
</svg>
