<svg width="24" height="24" viewBox="0 0 24 24" fill="none" xmlns="http://www.w3.org/2000/svg">
<path d="M3 6.25C3.41421 6.25 3.75 6.58579 3.75 7C3.75 7.3797 3.46785 7.69349 3.10177 7.74315L3 7.75H2C1.58579 7.75 1.25 7.41421 1.25 7C1.25 6.6203 1.53215 6.30651 1.89823 6.25685L2 6.25H3Z" fill="#323232"/>
<path d="M4 3.25C4.41421 3.25 4.75 3.58579 4.75 4C4.75 4.3797 4.46785 4.69349 4.10177 4.74315L4 4.75H2C1.58579 4.75 1.25 4.41421 1.25 4C1.25 3.6203 1.53215 3.30651 1.89823 3.25685L2 3.25H4Z" fill="#323232"/>
<path d="M17 19.25C17.4142 19.25 17.75 19.5858 17.75 20C17.75 20.3797 17.4678 20.6935 17.1018 20.7432L17 20.75H3C2.58579 20.75 2.25 20.4142 2.25 20C2.25 19.6203 2.53215 19.3065 2.89823 19.2568L3 19.25H17Z" fill="#323232"/>
<path d="M16.5566 3.78452C16.6756 3.38778 17.0937 3.16263 17.4905 3.28164C17.8542 3.39073 18.0737 3.75115 18.0161 4.11606L17.9934 4.21551L17.0073 7.50268C16.8 8.19335 16.1922 8.68134 15.4841 8.74333L15.331 8.75001H12.219C11.0938 8.75001 10.2741 7.70871 10.5079 6.63216L10.5426 6.49748L11.3566 3.78448C11.4757 3.38774 11.8938 3.16262 12.2905 3.28165C12.6542 3.39077 12.8737 3.7512 12.8161 4.1161L12.7934 4.21555L11.9795 6.92822C11.9375 7.06842 12.0242 7.20964 12.1587 7.24276L12.219 7.25001H15.331C15.419 7.25001 15.4993 7.20335 15.5441 7.13063L15.5706 7.07152L16.5566 3.78452Z" fill="#323232"/>
<path d="M10.13 12.25C10.5442 12.25 10.88 12.5858 10.88 13C10.88 13.3797 10.5978 13.6935 10.2318 13.7432L10.13 13.75H8C7.58579 13.75 7.25 13.4142 7.25 13C7.25 12.6203 7.53215 12.3065 7.89823 12.2568L8 12.25H10.13Z" fill="#323232"/>
<path fill-rule="evenodd" clip-rule="evenodd" d="M9.01 3.25H19.599C21.7093 3.25 23.2227 5.28425 22.6164 7.30551L20.4563 14.5058C20.056 15.8379 18.8291 16.75 17.438 16.75H6.85C4.73966 16.75 3.22625 14.7158 3.83263 12.6945L5.99272 5.49416C6.39303 4.162 7.61901 3.25 9.01 3.25ZM19.599 4.75H9.01C8.28126 4.75 7.63904 5.22774 7.42937 5.92551L5.26937 13.1255C4.9517 14.1844 5.74448 15.25 6.85 15.25H17.438C18.167 15.25 18.81 14.772 19.0196 14.0745L21.1796 6.87449C21.4973 5.81561 20.7045 4.75 19.599 4.75Z" fill="#323232"/>
</svg>
