<svg width="24" height="24" viewBox="0 0 24 24" fill="none" xmlns="http://www.w3.org/2000/svg">
<path fill-rule="evenodd" clip-rule="evenodd" d="M21.3228 8.99319C20.2399 7.91027 18.4841 7.91027 17.4012 8.99319C16.3183 10.0761 16.3183 11.8319 17.4012 12.9148C18.4841 13.9977 20.2399 13.9977 21.3228 12.9148C22.4057 11.8319 22.4057 10.0761 21.3228 8.99319ZM18.4619 10.0539C18.9259 9.58986 19.6589 9.55892 20.1588 9.96105L20.2622 10.0539L20.355 10.1572C20.7571 10.6571 20.7262 11.3901 20.2622 11.8541C19.765 12.3513 18.959 12.3513 18.4619 11.8541C17.9647 11.357 17.9647 10.551 18.4619 10.0539Z" fill="#323232"/>
<path fill-rule="evenodd" clip-rule="evenodd" d="M14.7329 5.38203C13.2235 3.87266 10.7764 3.87266 9.26698 5.38203C7.75761 6.89142 7.75761 9.3386 9.26698 10.848C10.7764 12.3573 13.2235 12.3573 14.7329 10.848C16.2423 9.33858 16.2423 6.8914 14.7329 5.38203ZM10.3276 6.44269C11.2092 5.56108 12.6137 5.52101 13.5429 6.32247L13.6723 6.44269L13.7925 6.57208C14.5939 7.50122 14.5539 8.9057 13.6723 9.78731C12.7487 10.7109 11.2512 10.7109 10.3276 9.78731C9.40405 8.86372 9.40405 7.36628 10.3276 6.44269Z" fill="#323232"/>
<path fill-rule="evenodd" clip-rule="evenodd" d="M6.59882 8.99319C5.5159 7.91027 3.76014 7.91027 2.67721 8.99319C1.59429 10.0761 1.59429 11.8319 2.67721 12.9148C3.76014 13.9977 5.5159 13.9977 6.59882 12.9148C7.68175 11.8319 7.68175 10.0761 6.59882 8.99319ZM3.73787 10.0539C4.20187 9.58986 4.93493 9.55892 5.4348 9.96105L5.53816 10.0539L5.63096 10.1572C6.03309 10.6571 6.00216 11.3901 5.53816 11.8541C5.04103 12.3513 4.23501 12.3513 3.73787 11.8541C3.24074 11.357 3.24074 10.551 3.73787 10.0539Z" fill="#323232"/>
<path d="M20.5 14.654C22.2333 14.654 23.6493 16.0102 23.7449 17.7195L23.75 17.904V19C23.75 19.4142 23.4142 19.75 23 19.75C22.6203 19.75 22.3065 19.4678 22.2569 19.1018L22.25 19V17.904C22.25 16.9855 21.5432 16.2328 20.6436 16.1598L20.5 16.154H19.699C19.2848 16.154 18.949 15.8182 18.949 15.404C18.949 15.0243 19.2312 14.7105 19.5972 14.6608L19.699 14.654H20.5Z" fill="#323232"/>
<path d="M4.301 14.654C4.71521 14.654 5.051 14.9898 5.051 15.404C5.051 15.7837 4.76885 16.0975 4.40277 16.1471L4.301 16.154H3.5C2.58155 16.154 1.82878 16.8608 1.7558 17.7604L1.75 17.904V19C1.75 19.4142 1.41421 19.75 1 19.75C0.620304 19.75 0.306509 19.4678 0.256847 19.1018L0.25 19V17.904C0.25 16.1707 1.60619 14.7547 3.31555 14.6591L3.5 14.654H4.301Z" fill="#323232"/>
<path d="M13.839 13.149C16.1172 13.149 17.9767 14.9415 18.0841 17.1931L18.089 17.399V19C18.089 19.4142 17.7532 19.75 17.339 19.75C16.9593 19.75 16.6455 19.4678 16.5958 19.1018L16.589 19V17.399C16.589 15.9365 15.4473 14.7406 14.0065 14.654L13.839 14.649H10.16C8.69747 14.649 7.5016 15.7907 7.41502 17.2315L7.41 17.399V19C7.41 19.4142 7.07422 19.75 6.66 19.75C6.28031 19.75 5.96651 19.4678 5.91685 19.1018L5.91 19V17.399C5.91 15.1208 7.70251 13.2613 9.95409 13.1539L10.16 13.149H13.839Z" fill="#323232"/>
</svg>
